<?xml version="1.0" encoding="UTF-8"?>
<svg width="162px" height="36px" viewBox="0 0 162 36" version="1.1" xmlns="http://www.w3.org/2000/svg" xmlns:xlink="http://www.w3.org/1999/xlink">
    <!-- Generator: Sketch 46.2 (44496) - http://www.bohemiancoding.com/sketch -->
    <title>logo</title>
    <desc>Created with Sketch.</desc>
    <defs></defs>
    <g id="Page-1" stroke="none" stroke-width="1" fill="none" fill-rule="evenodd">
        <g id="Open-Menu3" transform="translate(-102.000000, -50.000000)" fill="#EE312D">
            <g id="Group" transform="translate(-2.000000, 0.000000)">
                <g id="MENU" transform="translate(0.000000, 40.000000)">
                    <g id="logo" transform="translate(104.000000, 10.000000)">
                        <path d="M78.8980163,20.6929556 L71.552824,20.6929556 L70.9251526,24.1936734 L73.291298,24.1936734 C72.8193466,25.3139357 71.2956863,26.0534552 70.2072435,26.0534552 C67.5017085,26.0534552 67.1479446,23.9666922 67.5544137,21.6797952 C68.0623004,18.8331738 69.3990967,16.9473583 71.5144929,16.9473583 C72.9015987,16.9473583 73.752868,17.6649119 73.902998,18.9885624 L78.9994339,18.9885624 C79.0457506,15.0192381 76.2451864,13 72.3122584,13 C67.0137858,13 63.1056133,16.5413955 62.1824732,21.7017611 C61.1786782,27.3323603 64.4535894,30 68.6380651,30 C71.2062472,30 72.855282,29.0579058 73.9237607,28.0279479 L73.8431057,29.6192573 L77.3016867,29.6192573 L78.8980163,20.6929556 Z" id="Fill-2"></path>
                        <polygon id="Fill-1" points="61.3099361 30 62.0165273 26.2658336 53.3242007 26.2658336 53.8016724 23.7562352 60.8734383 23.7562352 61.5783571 20.0236812 54.5049188 20.0236812 54.9363994 17.7333602 63.2934088 17.7333602 64 14 50.020364 14 47 30"></polygon>
                        <polygon id="Fill-4" points="31.9042361 30 32.9019832 24.5785257 33.2407948 22.0882753 33.4439192 19.7342671 33.4902316 19.7342671 34.6342283 30 38.4302175 30 43.3458286 19.7342671 43.3913284 19.7342671 42.5828932 22.6227641 42.0572072 25.1114022 41.1610223 30 46.0685083 30 49 14 42.4073937 14 37.6396573 23.977125 36.5281604 14 29.9355542 14 27 30"></polygon>
                        <polygon id="Fill-6" points="159.307957 30 160.013573 26.2658336 151.323793 26.2658336 151.798662 23.7562352 158.870709 23.7562352 159.572981 20.0236812 152.504279 20.0236812 152.935674 17.7333602 161.293548 17.7333602 162 14 148.023114 14 145 30"></polygon>
                        <polygon id="Fill-9" points="136.041834 14 130.933382 14 128 30 133.224553 30 134.152551 24.9337902 134.612084 21.2897309 138.958166 30 144.06743 30 147 14 141.77707 14 140.845825 19.0879774 140.382232 22.7344553"></polygon>
                        <polygon id="Fill-11" points="121.887555 24.0899884 130 14 123.938592 14 120.046124 19.4222804 118.157205 14 112 14 116.368996 24.179473 115.291485 30 120.792849 30"></polygon>
                        <path d="M103.828107,17.7327421 L104.888412,17.7327421 C107.847366,17.7327421 108.834234,18.6211831 108.212078,21.9564648 C107.650157,24.9765192 105.999877,26.2656455 103.413887,26.2656455 L102.240537,26.2656455 L103.828107,17.7327421 Z M103.281039,30 C108.710463,30 112.68929,27.6886022 113.813131,21.66623 C114.793398,16.4000806 111.857548,14 106.40337,14 L98.9771066,14 L96,30 L103.281039,30 Z" id="Fill-13"></path>
                        <path d="M89.7895568,24.5564849 L86.2432407,24.5564849 L89.0603921,18.8203164 L89.7895568,24.5564849 Z M83.4996748,30 L84.5399052,27.889348 L90.1349066,27.889348 L90.4041624,30 L96,30 L92.8793087,14 L87.1630586,14 L78,30 L83.4996748,30 Z" id="Fill-15"></path>
                        <path d="M10.7305065,1.67526305 L10.6741471,1.61667011 C10.4947497,1.36001651 10.1962832,1.02166288 9.86765248,0.735300186 C9.45329205,0.455539509 8.95161428,0.293789973 8.41659716,0.293789973 C6.96316045,0.293789973 5.78278886,1.48297916 5.78278886,2.94780276 C5.78278886,4.40932536 6.96316045,5.59438828 8.41659716,5.59438828 C9.86765248,5.59438828 11.0480241,4.40932536 11.0480241,2.94780276 C11.0480241,2.48566123 10.9321302,2.0532288 10.7305065,1.67526305 L10.7305065,1.67526305 Z M0.431823904,9.93439241 C0.790618765,10.9667836 1.76619152,11.7086858 2.91639894,11.7086858 C4.37380462,11.7086858 5.55179482,10.5211471 5.55179482,9.05549825 C5.55179482,7.73922014 4.59447933,6.64493501 3.34266629,6.43862183 C1.13671292,6.40313596 0.321486546,7.85970704 0.342125189,9.20982051 C0.347681746,9.45409532 0.377052122,9.69671962 0.431823904,9.93439241 L0.431823904,9.93439241 Z M11.1154966,9.06210027 C11.1154966,10.5269239 12.2942806,11.7119868 13.7508924,11.7119868 C15.2051229,11.7119868 16.3823194,10.5269239 16.3823194,9.06210027 C16.3823194,7.59975242 15.2051229,6.41386425 13.7508924,6.41386425 C12.2942806,6.41386425 11.1154966,7.59975242 11.1154966,9.06210027 L11.1154966,9.06210027 Z M13.891394,6.12915205 C13.8191587,6.12255003 13.7485111,6.11759851 13.6659565,6.11759851 L14.8034632,6.12255003 L12.5332125,3.64679183 C12.2014067,4.93501135 10.955944,5.88240149 9.57553631,5.88240149 L8.25704458,5.88240149 C7.03380811,5.82050753 5.99631943,4.98287601 5.63514319,3.83577471 L3.62843211,6.11759851 L4.17059337,6.11759851 C5.78278886,6.11759851 7.11636268,7.46193522 7.11636268,9.08438209 C7.11636268,10.7027027 5.68673979,11.9942232 4.07216292,11.9942232 L2.75922774,11.9942232 C1.2319682,11.9191252 0,10.6325562 0,9.05549825 C0,7.92242624 0.637416535,6.93624923 1.57726856,6.44769961 L5.83914823,1.56220342 C6.33288806,0.637920363 7.30211047,0.0074272746 8.41659716,0.0074272746 L8.55789248,0.0099030328 C8.48724482,0.00577676914 8.41342198,0 8.33483638,0 L9.66682262,0.00577676914 C10.8313183,0.00577676914 11.845787,0.700639571 12.3268261,1.69589437 L17.0935587,6.92882195 C17.2237409,7.08231896 17.3666238,7.29275841 17.4999812,7.53043119 C17.6174627,7.71116154 17.7119242,7.90757169 17.785747,8.11223437 C17.9119603,8.42748092 17.9937211,8.74437797 17.9992776,9.00845884 C18.0135659,9.62162162 17.8151174,10.1852692 17.4729922,10.638333 C16.9165427,11.4602847 15.9504955,12 14.9074502,12 L13.5905461,12 C12.0632865,11.924902 10.8313183,10.638333 10.8313183,9.06210027 C10.8313183,7.43965339 12.1363156,6.12750155 13.7508924,6.12750155 L13.891394,6.12915205 Z" id="Fill-17"></path>
                        <polygon id="Fill-20" points="5.88108814 11 3 11.751649 15 11.751649 14.2786975 11.6048281 13.0050835 11.3010289 12.5599368 11"></polygon>
                        <path d="M0.973265361,31 C0.530955961,30.0627914 0.205918573,29.0528443 0,28 C0.205918573,29.0528443 0.530955961,30.0627914 0.973265361,31" id="Fill-22"></path>
                        <path d="M17,13 C17.0150204,13.0025034 17.0300408,13.0012517 17.0450612,13.0037551 C17.0300408,13.0012517 17.0150204,13.0025034 17,13" id="Fill-24"></path>
                        <path d="M3,34 C2.6375682,33.6955617 2.30709275,33.3564494 2,33 C2.30709275,33.3564494 2.6375682,33.6955617 3,34" id="Fill-26"></path>
                        <path d="M0.0913741497,28.6796735 C0.0513197279,28.455619 0.031292517,28.2265578 0,28 C0.031292517,28.2265578 0.0513197279,28.455619 0.0913741497,28.6796735" id="Fill-28"></path>
                        <path d="M1.20152381,32.3079184 C1.12892517,32.209034 1.07009524,32.1013878 1,32 C1.07009524,32.1013878 1.12892517,32.209034 1.20152381,32.3079184" id="Fill-30"></path>
                        <path d="M7,35.8652274 C6.29790496,35.6408408 5.63055697,35.347199 5,35 C5.63055697,35.347199 6.29790496,35.6408408 7,35.8652274" id="Fill-35"></path>
                        <path d="M4.57202721,34.4906667 C4.3742585,34.3367075 4.1902585,34.1639728 4,34 C4.1902585,34.1639728 4.3742585,34.3367075 4.57202721,34.4906667" id="Fill-39"></path>
                        <path d="M18.9797292,14.9206315 C18.7802744,14.5143347 18.4247648,14.1994548 18,14 C18.4247648,14.1994548 18.7802744,14.5143347 18.9797292,14.9206315" id="Fill-41"></path>
                        <path d="M2,13 C0.896613995,13 0,13.8965827 0,15 C0,13.897482 0.898419865,13 2,13" id="Fill-43"></path>
                        <path d="M17,13 C17.012517,13.0037551 17.0262857,13.0050068 17.0388027,13.0100136 C17.0262857,13.0050068 17.012517,13.0037551 17,13" id="Fill-45"></path>
                        <path d="M17,13 C17.171483,13.0300408 17.3379592,13.0788571 17.4994286,13.133932 C17.3379592,13.0788571 17.171483,13.0300408 17,13" id="Fill-49"></path>
                        <path d="M4.16522449,34.1139048 C4.11140136,34.0738503 4.05382313,34.0400544 4,34 C4.05382313,34.0400544 4.11140136,34.0738503 4.16522449,34.1139048" id="Fill-51"></path>
                        <path d="M17.0012517,13 L17,13 C17.1764898,13 17.3492245,13.0187755 17.5207075,13.0450612 C17.3492245,13.0187755 17.1777415,13 17.0012517,13" id="Fill-53"></path>
                        <path d="M19,15 C19.1552109,15.3005917 19.2428299,15.6366864 19.2428299,16 L19.2428299,15.9988166 C19.2428299,15.6366864 19.1552109,15.3005917 19,15" id="Fill-58"></path>
                        <path d="M17,13 C17.0901224,13.0325442 17.1727347,13.0788571 17.259102,13.1201633 C17.1727347,13.0788571 17.0901224,13.0325442 17,13" id="Fill-60"></path>
                        <path d="M1.94925692,32 C1.59559408,31.6838527 1.27332689,31.3518414 1,31 C1.27332689,31.3518414 1.59559408,31.6838527 1.94925692,32" id="Fill-65"></path>
                        <path d="M0.135740046,28 C0.0544806986,27.3437175 0,26.6791277 0,26 C0,26.6791277 0.0544806986,27.3437175 0.135740046,28" id="Fill-67"></path>
                        <path d="M0.058829932,29.2578503 C0.0413061224,29.171483 0.0162721088,29.0863673 0,29 C0.0162721088,29.0863673 0.0413061224,29.171483 0.058829932,29.2578503" id="Fill-69"></path>
                        <path d="M3.50693878,34.4330884 C3.33795918,34.2878912 3.16272109,34.1527075 3,34 C3.16272109,34.1527075 3.33795918,34.2878912 3.50693878,34.4330884" id="Fill-71"></path>
                        <path d="M2.28288435,32.3542313 C2.1902585,32.234068 2.08887075,32.1226667 2,32 C2.08887075,32.1226667 2.1902585,32.234068 2.28288435,32.3542313" id="Fill-73"></path>
                        <path d="M13,35 C16.6418645,33.4788732 19,29.942097 19,26.0007825 L19,26 C19,29.9413146 16.6418645,33.4788732 13,35" id="Fill-75"></path>
                        <path d="M14.1348472,22.3918905 L11.7518303,22.3918905 L11.7518303,20.0506316 L11.7834817,18.861692 L11.8975933,17.4782578 L10.4249704,22.3918905 L8.57752839,22.3918905 L7.08324931,17.4782578 L7.19736092,18.6061635 L7.25400026,19.7975445 L7.25400026,22.3918905 L4.8684845,22.3918905 L4.8684845,14.7333616 L8.07110605,14.7333616 L9.50041647,19.5110922 L10.9297269,14.7333616 L14.1348472,14.7333616 L14.1348472,22.3918905 Z M8.97900136,32.7017302 L4.84016483,32.7017302 L4.84016483,23.6068712 L9.05646399,23.6068712 C12.156635,23.6068712 14.0807067,24.9724021 14.0807067,27.9663164 C14.0807067,31.3882815 12.0625137,32.7017302 8.97900136,32.7017302 L8.97900136,32.7017302 Z M17.954671,13.2034462 C17.8971987,13.1774051 17.8422252,13.1472951 17.7822542,13.1253229 C17.7739249,13.1220677 17.7639297,13.1212539 17.7564333,13.1188126 C17.6481522,13.0830061 17.5373723,13.0512684 17.4232607,13.0317376 C17.4140985,13.03011 17.4032704,13.0309238 17.3932752,13.0292963 C17.2791636,13.0122068 17.164219,13 17.0467757,13 L1.84494323,13 C0.828766823,13 0,13.8121572 0,14.8098574 L0,25.7682836 C0,26.3004989 0.0499758888,26.8213212 0.123273859,27.3356332 C0.144097146,27.4829282 0.15742405,27.6318508 0.184077857,27.7775183 C0.194905966,27.8344832 0.211564596,27.8890068 0.223225637,27.945158 C0.408969357,28.863921 0.702161238,29.74525 1.10113542,30.5631037 C1.3468502,31.0684641 1.63837622,31.545342 1.95738898,31.9994339 C2.00403314,32.0653505 2.04318092,32.135336 2.09149095,32.199625 C2.14979615,32.2793759 2.2172636,32.3518027 2.27973346,32.4299261 C2.60790847,32.8490252 2.96107141,33.2461522 3.34838455,33.6034037 C3.45666564,33.7026855 3.57327605,33.7905742 3.6857218,33.8849733 C3.81232739,33.9915791 3.93476831,34.1038814 4.06637149,34.2039769 C4.10218754,34.230018 4.14050239,34.2511764 4.17631844,34.2772176 C4.3920477,34.4359056 4.61110868,34.5888971 4.8393319,34.7272406 C4.86015519,34.7402611 4.88264434,34.7492128 4.90263469,34.7614195 C5.41655342,35.0674026 5.96129061,35.3261862 6.5326816,35.5239359 C6.63679804,35.5597424 6.74591206,35.5825284 6.85086143,35.614266 C7.04743326,35.6744861 7.24317215,35.7379613 7.4455745,35.784347 C8.06610846,35.9251318 8.71329622,36 9.38047433,36 C10.7806322,36 12.0816711,35.7045961 13.2461093,35.1772636 C16.738591,33.5952659 19,29.9161448 19,25.8171107 L19,14.7024378 C19,14.4526059 18.9416948,14.221491 18.8375784,14.0147897 C18.6584981,13.6567243 18.3378195,13.3792237 17.954671,13.2034462 L17.954671,13.2034462 Z" id="Fill-77"></path>
                        <path d="M8.20585702,26 L7,26 L7,31 L8.27390181,31 C9.79328165,31 11,30.2670245 11,28.4983227 C11,26.5451191 9.94659776,26 8.20585702,26" id="Fill-80"></path>
                    </g>
                </g>
            </g>
        </g>
    </g>
</svg>